<svg width="1200" height="881" viewBox="0 0 1200 881" fill="none" xmlns="http://www.w3.org/2000/svg">
<path d="M163.681 130.25C71.2657 152.25 -3.95607 216.25 -23.9561 333.25C-43.9561 450.25 -161.956 915.443 264.044 800.25C690.044 685.056 1037.24 599.85 1322.04 726.25" stroke="#767474" stroke-linecap="round" stroke-dasharray="8 8"/>
<g clip-path="url(#clip0)">
<path d="M184.213 134.63L192.63 143.441L255.404 116.352L184.213 134.63Z" fill="#DE9E17"/>
<path d="M186.874 105.213L180.68 114.673L185.063 123.934L175.552 125.578L167.439 144.126L257.416 115.683L186.874 105.213Z" fill="#FADF85"/>
<path d="M185.063 123.934L180.68 114.673L229.642 116.477L185.063 123.934Z" fill="#EBBE4A"/>
</g>
<g opacity="0.25" filter="url(#filter0_f)">
<path d="M164.335 180.414L157.718 185.369L161.413 190.5L152.048 191.135L143 200.958L232.384 187.976L164.335 180.414Z" fill="#AEAEAE"/>
</g>
<defs>
<filter id="filter0_f" x="140" y="177.414" width="95.3837" height="26.5436" filterUnits="userSpaceOnUse" color-interpolation-filters="sRGB">
<feFlood flood-opacity="0" result="BackgroundImageFix"/>
<feBlend mode="normal" in="SourceGraphic" in2="BackgroundImageFix" result="shape"/>
<feGaussianBlur stdDeviation="1.5" result="effect1_foregroundBlur"/>
</filter>
<clipPath id="clip0">
<rect width="90.2871" height="38.6945" fill="white" transform="translate(167.009 105.434) rotate(-0.636487)"/>
</clipPath>
</defs>
</svg>
