<svg width="178" height="197" viewBox="0 0 178 197" fill="none" xmlns="http://www.w3.org/2000/svg">
<g opacity="0.18" filter="url(#filter0_f)">
<path d="M154.632 143.126C146.442 147.419 133.226 146.197 129.76 150.27C127.277 153.2 133.667 156.137 132.913 159.292C132.442 161.299 129.324 162.914 126.024 163.938" fill="#1D2F3D"/>
<path d="M126.162 164.844C126.959 164.56 127.157 164.042 126.659 163.632C126.162 163.223 125.191 163.142 124.394 163.426C123.597 163.709 123.399 164.228 123.897 164.638C124.447 165.017 125.418 165.097 126.162 164.844Z" fill="#1D2F3D"/>
<path d="M116.882 168.72L114.173 166.509L121.134 164.022C122.302 163.583 123.921 163.755 124.587 164.358C125.36 164.957 124.958 165.824 123.788 166.206L116.882 168.72Z" fill="#1D2F3D"/>
<path d="M127.512 145.769C126.285 146.067 122.176 142.17 118.348 137.069C114.52 131.967 112.438 127.602 113.665 127.304C114.892 127.005 119.001 130.902 122.829 136.004C126.657 141.105 128.739 145.47 127.512 145.769Z" fill="#1D2F3D"/>
<path d="M19.4652 152.44L29.5937 165.937L133.144 141.96L123.015 128.463L19.4652 152.44Z" fill="#1D2F3D"/>
<path d="M22.0889 155.969L26.5859 161.962L130.136 137.984L125.639 131.991L22.0889 155.969Z" fill="#1D2F3D"/>
<path d="M21.8313 156.441L25.7424 161.653L129.293 137.676L125.382 132.464L21.8313 156.441Z" fill="#1D2F3D"/>
<path d="M123.026 128.471L133.154 141.968L137.047 141.067L126.919 127.569L123.026 128.471Z" fill="#1D2F3D"/>
<path d="M142.606 130.855L143.847 132.576C146.268 135.82 143.169 139.625 136.926 141.064L126.795 127.59C133.145 126.148 140.185 127.611 142.606 130.855Z" fill="#1D2F3D"/>
<path d="M19.4935 152.485C19.4935 152.485 29.5519 157.371 29.6244 165.958L17.8984 165.851L8.64691 165.772C3.96745 165.735 1.71804 162.797 4.9871 160.864L11.3161 157.176L19.4935 152.485Z" fill="#1D2F3D"/>
<path d="M135.583 133.089L134.165 114.849L135.178 114.615L159.54 127.512L158.878 146.25L157.864 146.484L135.583 133.089Z" fill="#1D2F3D"/>
<path d="M133.448 133.561L134.165 114.849L158.526 127.746L157.864 146.484L133.448 133.561Z" fill="#1D2F3D"/>
<path d="M148.442 130.113C144.614 125.012 140.504 121.115 139.278 121.413L113.665 127.304C114.892 127.005 119.001 130.902 122.829 136.004C126.657 141.105 128.739 145.47 127.512 145.769L153.07 139.852C154.297 139.553 152.215 135.188 148.442 130.113Z" fill="#1D2F3D"/>
<path d="M117.405 129.791C115.681 128.116 114.306 127.168 113.665 127.304C113.024 127.44 113.281 128.682 114.203 130.528L117.405 129.791Z" fill="#1D2F3D"/>
<path d="M127.323 143.329L124.441 143.998C125.827 145.23 126.926 145.931 127.459 145.799C128.045 145.637 127.907 144.731 127.323 143.329Z" fill="#1D2F3D"/>
<path d="M9.2054 158.384C11.1243 159.483 12.4393 160.24 13.6215 161.821C14.7491 163.375 14.5896 164.391 14.6938 165.894L8.61554 165.729C3.93608 165.692 1.68666 162.755 4.95571 160.821L9.2054 158.384Z" fill="#1D2F3D"/>
</g>
<path d="M99.1816 27.8582C98.6102 39.9493 86.2025 47.547 89.1412 55.9617C91.2635 62.0072 100.569 61.7621 104.406 66.909C106.855 70.1768 106.61 74.7518 105.385 78.5915" stroke="#D15421" stroke-miterlimit="10" stroke-linecap="round" stroke-linejoin="round"/>
<path d="M106.773 79.8171C107.018 78.8368 106.447 77.9381 105.467 77.6931C104.488 77.448 103.59 78.0198 103.345 79.0002C103.1 79.9805 103.671 80.8792 104.651 81.1243C105.63 81.2877 106.528 80.7158 106.773 79.8171Z" fill="#FFA787"/>
<path d="M104.733 92.0714L99.4266 90.7642L101.549 82.1862C101.875 80.7156 103.426 79.817 104.814 80.2255C106.283 80.5522 107.181 82.1045 106.773 83.4933L104.733 92.0714Z" fill="#F28F6B"/>
<path d="M80.9783 50.9783C80.4069 52.2854 71.5909 49.5077 61.3056 44.7694C51.0203 40.031 43.1838 35.1292 43.7553 33.8221C44.3267 32.515 53.1427 35.2926 63.428 40.031C73.7133 44.7694 81.5497 49.6711 80.9783 50.9783Z" fill="#523831"/>
<path d="M80.1631 41.412L52.9493 28.8763L3.01811 137.45L3.77259 140.675L26.5672 151.175L30.2212 150.009L80.1631 41.412Z" fill="#FCAB42"/>
<path d="M80.1631 41.412L52.9493 28.8763L3.01811 137.45L3.77259 140.675L26.5672 151.175L30.2212 150.009L80.1631 41.412Z" fill="url(#paint0_linear)"/>
<g filter="url(#filter1_f)">
<path d="M10.1135 140.744L22.1965 146.31L72.1276 37.7369L60.0447 32.1711L10.1135 140.744Z" fill="#DE9E17"/>
</g>
<g filter="url(#filter2_di)">
<path d="M9.59043 143.75L20.0993 148.591L71.0111 37.8854L60.5023 33.0446L9.59043 143.75Z" fill="#DE9E17" fill-opacity="0.7"/>
</g>
<path d="M52.9694 28.881L80.1833 41.4167L82.0604 37.335L54.8465 24.7993L52.9694 28.881Z" fill="#D25523"/>
<path d="M72.1623 18.4634L75.5907 20.0973C82.1211 23.1201 84.9781 30.8812 81.9578 37.4169L54.7752 24.9174C57.8771 18.3 65.6319 15.4406 72.1623 18.4634Z" fill="#942200"/>
<path d="M3.10374 137.494C13.0625 147.675 30.2864 149.994 30.2864 149.994L20.6541 158.164L13.0625 164.618C9.22594 167.885 3.26698 165.189 3.18535 160.043L3.10374 150.157V137.494Z" fill="#FFE9A5"/>
<path d="M3.10374 137.494C13.0625 147.675 30.2864 149.994 30.2864 149.994L20.6541 158.164L13.0625 164.618C9.22594 167.885 3.26698 165.189 3.18535 160.043L3.10374 150.157V137.494Z" fill="url(#paint1_linear)"/>
<path d="M69.6318 26.7146L42.7757 1.06205L43.2655 0L81.1415 1.55222L107.018 29.4106L106.528 30.4726L69.6318 26.7146Z" fill="#6056A5"/>
<path d="M68.5706 28.9205L42.7757 1.06213L80.6518 2.61436L106.528 30.4727L68.5706 28.9205Z" fill="#180C62"/>
<path d="M75.8349 13.2348C65.5496 8.49648 56.7336 5.71881 56.1622 7.02595L43.7545 33.8223C44.3259 32.5151 53.1419 35.2928 63.4272 40.0312C73.7126 44.7695 81.549 49.6713 80.9776 50.9784L93.3036 24.1821C93.875 22.875 86.0386 17.9732 75.8349 13.2348Z" fill="#36269A"/>
<path d="M75.8349 13.2348C65.5496 8.49648 56.7336 5.71881 56.1622 7.02595L43.7545 33.8223C44.3259 32.5151 53.1419 35.2928 63.4272 40.0312C73.7126 44.7695 81.549 49.6713 80.9776 50.9784L93.3036 24.1821C93.875 22.875 86.0386 17.9732 75.8349 13.2348Z" fill="url(#paint2_linear)"/>
<path d="M50.2855 34.8027C46.5305 33.5773 44.0816 33.1688 43.7551 33.8224C43.4286 34.4759 45.3877 36.1099 48.7345 38.1523L50.2855 34.8027Z" fill="#180C62"/>
<path d="M77.3865 47.5474L75.9987 50.5701C78.8558 51.3871 80.7333 51.6322 80.9782 51.0603C81.223 50.4067 79.8353 49.1813 77.3865 47.5474Z" fill="#180C62"/>
<path d="M3.09966 155.31C3.09966 155.31 5.83456 158.204 9.01811 159.675C12.12 161.145 16.5181 161.675 16.5181 161.675L12.9768 164.577C7.01811 169.175 3.0181 168.175 3.09966 160.002V155.31Z" fill="#364958"/>
<defs>
<filter id="filter0_f" x="0.411026" y="111.615" width="162.129" height="60.1047" filterUnits="userSpaceOnUse" color-interpolation-filters="sRGB">
<feFlood flood-opacity="0" result="BackgroundImageFix"/>
<feBlend mode="normal" in="SourceGraphic" in2="BackgroundImageFix" result="shape"/>
<feGaussianBlur stdDeviation="1.5" result="effect1_foregroundBlur"/>
</filter>
<filter id="filter1_f" x="0.113541" y="22.1711" width="82.0141" height="134.139" filterUnits="userSpaceOnUse" color-interpolation-filters="sRGB">
<feFlood flood-opacity="0" result="BackgroundImageFix"/>
<feBlend mode="normal" in="SourceGraphic" in2="BackgroundImageFix" result="shape"/>
<feGaussianBlur stdDeviation="5" result="effect1_foregroundBlur"/>
</filter>
<filter id="filter2_di" x="3.59042" y="30.0446" width="71.4207" height="125.546" filterUnits="userSpaceOnUse" color-interpolation-filters="sRGB">
<feFlood flood-opacity="0" result="BackgroundImageFix"/>
<feColorMatrix in="SourceAlpha" type="matrix" values="0 0 0 0 0 0 0 0 0 0 0 0 0 0 0 0 0 0 127 0"/>
<feOffset dx="-1" dy="2"/>
<feGaussianBlur stdDeviation="2.5"/>
<feColorMatrix type="matrix" values="0 0 0 0 1 0 0 0 0 1 0 0 0 0 1 0 0 0 0.3 0"/>
<feBlend mode="normal" in2="BackgroundImageFix" result="effect1_dropShadow"/>
<feBlend mode="normal" in="SourceGraphic" in2="effect1_dropShadow" result="shape"/>
<feColorMatrix in="SourceAlpha" type="matrix" values="0 0 0 0 0 0 0 0 0 0 0 0 0 0 0 0 0 0 127 0" result="hardAlpha"/>
<feOffset dy="1"/>
<feGaussianBlur stdDeviation="0.5"/>
<feComposite in2="hardAlpha" operator="arithmetic" k2="-1" k3="1"/>
<feColorMatrix type="matrix" values="0 0 0 0 1 0 0 0 0 1 0 0 0 0 1 0 0 0 0.5 0"/>
<feBlend mode="normal" in2="shape" result="effect2_innerShadow"/>
</filter>
<linearGradient id="paint0_linear" x1="25.1035" y1="86.6917" x2="52.4551" y2="100.403" gradientUnits="userSpaceOnUse">
<stop stop-color="#FFE798"/>
<stop offset="1" stop-color="#CA9628"/>
</linearGradient>
<linearGradient id="paint1_linear" x1="8.68285" y1="152.005" x2="18.1242" y2="161.447" gradientUnits="userSpaceOnUse">
<stop stop-color="#FFF3CC"/>
<stop offset="1" stop-color="#D7BD7B"/>
</linearGradient>
<linearGradient id="paint2_linear" x1="82.7971" y1="14.6341" x2="68.5438" y2="50.9784" gradientUnits="userSpaceOnUse">
<stop stop-color="#180C62"/>
<stop offset="1" stop-color="#36269A" stop-opacity="0"/>
</linearGradient>
</defs>
</svg>
